<svg width="120" height="114" viewBox="0 0 120 114" fill="none" xmlns="http://www.w3.org/2000/svg">
<path d="M21.1599 111.077C18.4193 111.419 17.1632 112.932 16.8777 113.646H8.74148C6.45763 111.219 1.88993 103.968 1.88993 94.376C1.88993 82.3858 1.88993 75.106 3.60282 72.5367C5.31571 69.9674 10.4544 51.9821 11.3108 42.9894C12.1673 33.9967 13.8801 14.7268 16.0213 10.8728C18.1624 7.01876 20.7317 3.59299 24.5857 2.30832C28.4397 1.02366 31.009 1.02366 32.7219 1.02366C34.0922 1.02366 35.8622 2.45106 36.5759 3.16477C41.2863 2.87929 53.1909 2.30832 59.6999 2.30832H60.1281C66.6371 2.30832 78.5416 2.87929 83.2521 3.16477C83.9658 2.45106 85.7358 1.02366 87.1061 1.02366C88.819 1.02366 91.3883 1.02366 95.2423 2.30832C99.0963 3.59299 101.666 7.01876 103.807 10.8728C105.948 14.7268 107.661 33.9967 108.517 42.9894C109.374 51.9821 114.512 69.9674 116.225 72.5367C117.938 75.106 117.938 82.3858 117.938 94.376C117.938 103.968 113.37 111.219 111.087 113.646H102.95C102.665 112.932 101.409 111.419 98.6681 111.077C95.2423 110.648 66.1232 110.22 60.1281 110.22H59.6999C53.7048 110.22 24.5857 110.648 21.1599 111.077Z" fill="#F7F7F7"/>
<path fill-rule="evenodd" clip-rule="evenodd" d="M7.53104 61.0764C11.3784 60.2812 16.7526 58.06 18.1624 53.2667C18.7214 51.3661 19.1637 49.0277 19.634 46.541C20.965 39.5031 22.5206 31.2777 27.5833 28.4299H90.9602C96.0229 31.2777 97.5785 39.5031 98.9095 46.541C99.3798 49.0277 99.822 51.3661 100.381 53.2667C101.965 58.6537 108.557 60.792 112.361 61.3084C110.642 55.1079 108.973 47.7752 108.517 42.9894C108.468 42.4731 108.416 41.923 108.361 41.3438C107.463 31.835 105.825 14.5055 103.807 10.8728C101.666 7.01876 99.0964 3.59299 95.2424 2.30832C91.3884 1.02366 88.819 1.02366 87.1062 1.02366C85.7359 1.02366 83.9659 2.45106 83.2522 3.16477C78.5417 2.87929 66.6371 2.30832 60.1282 2.30832H59.7C53.191 2.30832 41.2864 2.87929 36.576 3.16477C35.8623 2.45106 34.0923 1.02366 32.722 1.02366C31.0091 1.02366 28.4398 1.02366 24.5858 2.30832C20.7318 3.59299 18.1624 7.01876 16.0213 10.8728C14.0031 14.5055 12.3654 31.835 11.4668 41.3438C11.412 41.923 11.3601 42.4731 11.3109 42.9894C10.8608 47.7156 9.22784 54.9257 7.53104 61.0764Z" fill="white"/>
<path d="M23.1228 8.73165C23.1228 8.63054 23.0619 8.53938 22.9685 8.50068C22.8751 8.46199 22.7675 8.48338 22.696 8.55487C21.5919 9.65897 20.6133 11.3528 19.7652 13.372C18.9154 15.3954 18.189 17.7644 17.598 20.2355C16.4166 25.1763 15.7712 30.5487 15.7712 34.425C15.7712 38.3046 16.4176 41.0195 17.2401 42.7743C17.6512 43.6513 18.1093 44.2948 18.5587 44.7227C19.0023 45.1453 19.4627 45.3805 19.8752 45.3805C20.2644 45.3805 20.662 45.2196 21.0298 44.9601C21.3995 44.6991 21.7539 44.3282 22.0618 43.8804C22.6773 42.9852 23.1228 41.7587 23.1228 40.4201V8.73165Z" fill="#252525" stroke="#A3A3A3" stroke-width="0.5" stroke-linejoin="round"/>
<path d="M25.4421 48.5563V7.87521C28.2969 6.59054 37.6036 4.02121 51.9919 4.02121H65.695C80.0832 4.02121 89.3899 6.59054 92.2447 7.87521V48.5563C92.2447 54.9796 86.6779 60.5465 69.9772 60.5465H47.7097C31.009 60.5465 25.4421 54.9796 25.4421 48.5563Z" fill="#545454"/>
<path d="M25.4421 48.5563V7.87521C28.2969 6.59054 37.6036 4.02121 51.9919 4.02121H65.695C80.0832 4.02121 89.3899 6.59054 92.2447 7.87521V48.5563C92.2447 54.9796 86.6779 60.5465 69.9772 60.5465H47.7097C31.009 60.5465 25.4421 54.9796 25.4421 48.5563Z" fill="url(#paint0_radial_1_20)"/>
<g filter="url(#filter0_f_1_20)">
<rect x="34.0066" y="4.87766" width="49.6737" height="11.1338" fill="url(#paint1_radial_1_20)" fill-opacity="0.3"/>
</g>
<path d="M94.9923 8.73165C94.9923 8.63054 95.0532 8.53938 95.1466 8.50068C95.24 8.46199 95.3476 8.48338 95.4191 8.55487C96.5232 9.65897 97.5018 11.3528 98.3499 13.372C99.1997 15.3954 99.9261 17.7644 100.517 20.2355C101.699 25.1763 102.344 30.5487 102.344 34.425C102.344 38.3046 101.698 41.0195 100.875 42.7743C100.464 43.6513 100.006 44.2948 99.5564 44.7227C99.1128 45.1453 98.6524 45.3805 98.2399 45.3805C97.8507 45.3805 97.4531 45.2196 97.0853 44.9601C96.7156 44.6991 96.3612 44.3282 96.0533 43.8804C95.4378 42.9852 94.9923 41.7587 94.9923 40.4201V8.73165Z" fill="#252525" stroke="#A3A3A3" stroke-width="0.5" stroke-linejoin="round"/>
<path d="M26.7268 24.5759C30.0098 22.863 40.9438 19.4372 58.4152 19.4372C75.8867 19.4372 87.1061 22.863 90.5319 24.5759" stroke="black" stroke-opacity="0.4" stroke-linecap="round" stroke-linejoin="round"/>
<path fill-rule="evenodd" clip-rule="evenodd" d="M25.4421 45.987V48.5563C25.4421 54.9796 31.009 60.5465 47.7097 60.5465H69.9772C86.6779 60.5465 92.2447 54.9796 92.2447 48.5563V45.987C92.2447 52.4103 86.6779 57.9772 69.9772 57.9772H47.7097C31.009 57.9772 25.4421 52.4103 25.4421 45.987Z" fill="#F2F2F2" fill-opacity="0.1"/>
<rect x="47.2814" y="57.1207" width="22.2675" height="1.71289" fill="#D0021B" fill-opacity="0.4"/>
<path d="M27.5832 71.6803C30.653 71.6803 32.7945 74.9009 33.8688 77.4067C34.1651 78.0979 33.5489 78.7925 32.8053 78.6795C31.0003 78.4051 28.36 78.1036 25.8704 78.1036C21.5881 78.1036 16.8777 80.2447 14.7366 80.2447C12.5955 80.2447 7.45682 80.2447 7.45682 75.9625C7.45682 73.1924 8.39009 70.7957 9.12468 69.4514C9.37077 69.0011 9.93671 68.8754 10.399 69.0982C11.7492 69.7488 14.1298 70.7025 16.8777 71.252C21.1599 72.1085 22.8728 71.6803 27.5832 71.6803Z" fill="#6D0000"/>
<g filter="url(#filter1_f_1_20)">
<path d="M31.4373 77.2471C31.1518 75.9624 29.9813 73.3074 27.5833 72.9648C24.5857 72.5366 19.447 73.3931 16.8776 72.5366C14.3083 71.6802 12.1673 71.2516 10.0262 72.1082C7.88507 72.9648 8.31327 77.9608 11.7391 78.5318C15.1649 79.1028 16.5922 78.2463 18.1623 78.1036M17.7341 76.3907C17.8768 76.2479 17.8197 75.8768 16.4494 75.5342C14.7365 75.106 13.8801 75.9625 13.0237 75.5342C12.3385 75.1917 12.7382 74.5351 13.0237 74.2496" stroke="#FB4E4E" stroke-linecap="round" stroke-linejoin="round"/>
</g>
<path d="M90.5319 71.6803C87.4621 71.6803 85.3206 74.9009 84.2463 77.4067C83.95 78.0979 84.5662 78.7925 85.3098 78.6795C87.1148 78.4051 89.7551 78.1036 92.2447 78.1036C96.527 78.1036 101.237 80.2447 103.379 80.2447C105.52 80.2447 110.658 80.2447 110.658 75.9625C110.658 73.1924 109.725 70.7957 108.99 69.4514C108.744 69.0011 108.178 68.8754 107.716 69.0982C106.366 69.7488 103.985 70.7025 101.237 71.252C96.9552 72.1085 95.2423 71.6803 90.5319 71.6803Z" fill="#6D0000"/>
<g filter="url(#filter2_f_1_20)">
<path d="M86.6778 77.2471C86.9633 75.9624 88.1338 73.3074 90.5318 72.9648C93.5294 72.5366 98.6681 73.3931 101.237 72.5366C103.807 71.6802 105.948 71.2516 108.089 72.1082C110.23 72.9648 109.802 77.9608 106.376 78.5318C102.95 79.1028 101.523 78.2463 99.9528 78.1036M100.381 76.3907C100.238 76.2479 100.295 75.8768 101.666 75.5342C103.379 75.106 104.235 75.9625 105.091 75.5342C105.777 75.1917 105.377 74.5351 105.091 74.2496" stroke="#FB4E4E" stroke-linecap="round" stroke-linejoin="round"/>
</g>
<path d="M20.3035 71.6803C20.4462 78.1036 22.2733 90.9502 28.4397 90.9502H89.6754C95.8418 90.9502 97.6689 78.1036 97.8116 71.6803" stroke="black" stroke-opacity="0.4"/>
<g filter="url(#filter3_f_1_20)">
<path d="M60.0828 80.2447C21.0387 80.2447 14.4449 59.2817 16.0286 48.8002L15.1648 20.8495L43.6705 4.87766L98.9542 11.8653L105.865 48.8002C106.872 59.2817 99.127 80.2447 60.0828 80.2447Z" fill="black" fill-opacity="0.1"/>
</g>
<rect x="49.9226" y="80.7447" width="19.5546" height="8.42088" rx="0.5" fill="#E9E9E9" stroke="#CCCCCC"/>
<path fill-rule="evenodd" clip-rule="evenodd" d="M62.9337 71.7587C61.7911 71.3211 60.675 71.182 59.6999 71.1885H59.6997C58.7246 71.182 57.6083 71.3211 56.4659 71.7587C56.3298 71.5419 56.2741 71.4104 56.2741 71.4104C57.5229 70.9762 58.6926 70.8275 59.6997 70.8238C60.707 70.8275 61.8767 70.9762 63.1257 71.4104C63.1257 71.4104 63.0864 71.5171 62.9337 71.7587ZM60.6588 72.0818L59.7003 76.8189L58.734 72.0811C57.8265 72.0817 57.5387 72.1697 57.4968 72.5291C57.4968 72.5291 56.8837 72.3283 56.5748 71.9204C57.7809 71.4292 58.993 71.407 58.993 71.407L59.6995 72.1632L60.4059 71.4072C60.4059 71.4072 61.6179 71.4293 62.8242 71.9205C62.5151 72.3284 61.9022 72.5292 61.9022 72.5292C61.8606 72.1698 61.5724 72.0818 60.6588 72.0818Z" fill="#888585"/>
<path d="M59.6999 67.398C46.6819 67.398 35.1485 68.54 31.009 69.1109H88.819C84.5368 68.54 72.7178 67.398 59.6999 67.398Z" fill="black" fill-opacity="0.1"/>
<path d="M59.6999 81.1011C46.6819 81.1011 35.1485 79.9592 31.009 79.3883H88.819C84.5368 79.9592 72.7178 81.1011 59.6999 81.1011Z" fill="#C9C9C9"/>
<path d="M29.7243 105.082L26.7268 108.079C25.0139 107.394 15.4503 107.794 10.8826 108.079C10.8826 108.079 12.9381 106.966 17.7341 105.938C22.5302 104.91 27.726 104.939 29.7243 105.082Z" fill="#510000"/>
<path d="M88.819 105.082L91.8165 108.079C93.5294 107.394 103.093 107.794 107.661 108.079C107.661 108.079 105.605 106.966 100.809 105.938C96.0131 104.91 90.8173 104.939 88.819 105.082Z" fill="#510000"/>
<path d="M15.1648 70.3956H101.666" stroke="white"/>
<path d="M12.5955 19.4372H14.7366V22.0065H12.5955C12.5955 23.7194 10.4544 25.0041 7.02859 25.0041C3.17459 25.0041 0.605263 24.5759 0.605263 22.0065C0.605263 18.1525 7.45681 16.0114 10.0261 16.0114C12.0816 16.0114 12.5955 18.2953 12.5955 19.4372Z" fill="white"/>
<path fill-rule="evenodd" clip-rule="evenodd" d="M10.3862 24.4739C9.49375 24.8107 8.3579 25.0041 7.02862 25.0041C3.92521 25.0041 1.65481 24.7264 0.888165 23.2767C2.10036 21.2771 6.87903 19.009 8.74151 19.009C10.8826 19.009 11.3108 20.7219 11.3108 22.0065C11.3108 22.7904 10.8126 23.7902 10.3862 24.4739Z" fill="#A8A5A5"/>
<path d="M107.233 19.4372H105.091V22.0065H107.233C107.233 23.7194 109.374 25.0041 112.799 25.0041C116.653 25.0041 119.223 24.5759 119.223 22.0065C119.223 18.1525 112.371 16.0114 109.802 16.0114C107.746 16.0114 107.233 18.2953 107.233 19.4372Z" fill="white"/>
<path fill-rule="evenodd" clip-rule="evenodd" d="M109.442 24.4739C110.334 24.8107 111.47 25.0041 112.799 25.0041C115.903 25.0041 118.173 24.7264 118.94 23.2767C117.728 21.2771 112.949 19.009 111.086 19.009C108.945 19.009 108.517 20.7219 108.517 22.0065C108.517 22.7904 109.015 23.7902 109.442 24.4739Z" fill="#A8A5A5"/>
<g filter="url(#filter4_f_1_20)">
<rect x="16.0212" y="87.9527" width="85.6444" height="11.9902" rx="5.99511" fill="black" fill-opacity="0.1"/>
</g>
<defs>
<filter id="filter0_f_1_20" x="32.0066" y="2.87766" width="53.6737" height="15.1338" filterUnits="userSpaceOnUse" color-interpolation-filters="sRGB">
<feFlood flood-opacity="0" result="BackgroundImageFix"/>
<feBlend mode="normal" in="SourceGraphic" in2="BackgroundImageFix" result="shape"/>
<feGaussianBlur stdDeviation="1" result="effect1_foregroundBlur_1_20"/>
</filter>
<filter id="filter1_f_1_20" x="7.21746" y="70.1414" width="25.7199" height="10.081" filterUnits="userSpaceOnUse" color-interpolation-filters="sRGB">
<feFlood flood-opacity="0" result="BackgroundImageFix"/>
<feBlend mode="normal" in="SourceGraphic" in2="BackgroundImageFix" result="shape"/>
<feGaussianBlur stdDeviation="0.5" result="effect1_foregroundBlur_1_20"/>
</filter>
<filter id="filter2_f_1_20" x="85.1777" y="70.1414" width="25.7199" height="10.081" filterUnits="userSpaceOnUse" color-interpolation-filters="sRGB">
<feFlood flood-opacity="0" result="BackgroundImageFix"/>
<feBlend mode="normal" in="SourceGraphic" in2="BackgroundImageFix" result="shape"/>
<feGaussianBlur stdDeviation="0.5" result="effect1_foregroundBlur_1_20"/>
</filter>
<filter id="filter3_f_1_20" x="11.1648" y="0.877655" width="98.783" height="83.367" filterUnits="userSpaceOnUse" color-interpolation-filters="sRGB">
<feFlood flood-opacity="0" result="BackgroundImageFix"/>
<feBlend mode="normal" in="SourceGraphic" in2="BackgroundImageFix" result="shape"/>
<feGaussianBlur stdDeviation="2" result="effect1_foregroundBlur_1_20"/>
</filter>
<filter id="filter4_f_1_20" x="12.0212" y="83.9527" width="93.6444" height="19.9902" filterUnits="userSpaceOnUse" color-interpolation-filters="sRGB">
<feFlood flood-opacity="0" result="BackgroundImageFix"/>
<feBlend mode="normal" in="SourceGraphic" in2="BackgroundImageFix" result="shape"/>
<feGaussianBlur stdDeviation="2" result="effect1_foregroundBlur_1_20"/>
</filter>
<radialGradient id="paint0_radial_1_20" cx="0" cy="0" r="1" gradientUnits="userSpaceOnUse" gradientTransform="translate(58.4152 28.8581) rotate(90) scale(41.5375 119.229)">
<stop stop-opacity="0"/>
<stop offset="1"/>
</radialGradient>
<radialGradient id="paint1_radial_1_20" cx="0" cy="0" r="1" gradientUnits="userSpaceOnUse" gradientTransform="translate(58.8434 10.9084) rotate(90) scale(5.10298 29.7451)">
<stop stop-color="white"/>
<stop offset="0.98895" stop-color="white" stop-opacity="0"/>
</radialGradient>
</defs>
</svg>
