<svg width="36" height="45" viewBox="0 0 36 45" fill="none" xmlns="http://www.w3.org/2000/svg">
<path d="M22.0887 12.9572C21.9854 12.9062 21.905 12.8552 21.8591 12.7957V12.7957C21.3379 12.1677 21.8737 11.3093 22.5193 10.8102C23.9077 9.73681 24.6615 7.95639 24.6615 5.93882C24.6615 2.65774 22.4502 0 19.2937 0C16.1458 0 13.9346 2.65774 13.9346 5.93882C13.9346 7.9567 14.6887 9.73736 16.0775 10.8107C16.7209 11.308 17.2533 12.1674 16.737 12.7957V12.7957C16.0196 13.657 8.15709 13.5494 8.335 25.3307C11.9506 21.5962 16.5964 17.2243 22.0887 12.9572Z" fill="#FF0000"/>
<path d="M8.81726 31.5273C9.97942 40.223 12.7772 44.3286 14.255 44.7678C15.9538 45.2693 17.8362 44.9066 18.301 44.1756C19.3742 42.4784 13.2162 35.5479 14.7199 34.2955C15.3569 33.7657 18.1719 33.6977 19.2939 33.692C20.4187 33.6977 23.2338 33.7657 23.8709 34.2955C25.3774 35.5479 19.2193 42.4784 20.2954 44.1756C20.7603 44.9066 22.6369 45.2693 24.3414 44.7678C25.7848 44.3314 28.508 40.3732 29.7046 32.0231C21.9052 30.8728 13.8677 31.1448 8.81726 31.5273V31.5273Z" fill="#FF0000"/>
<path d="M12.3523 27.1185C17.3453 26.8919 23.7645 26.9344 30.1406 27.8637C30.1808 27.2687 30.2152 26.6595 30.2411 26.0277C30.5079 19.5902 28.4648 16.5159 26.327 14.9179C20.826 19.0263 16.0942 23.3473 12.3523 27.1185V27.1185Z" fill="#FF0000"/>
<path d="M33.4919 9.76688C34.4504 9.18603 34.7775 7.90816 34.2151 6.9108C33.6584 5.91628 32.4359 5.57626 31.4746 6.15711C27.7443 8.41816 25.2914 10.4723 22.089 12.9572C22.7777 13.2972 24.5883 13.6174 26.3272 14.9179C28.9041 12.9997 30.6081 11.5151 33.4919 9.76688Z" fill="#FF0000"/>
<path d="M34.4152 28.3198C32.8943 27.9742 31.6902 28.0904 30.1406 27.8638C30.0402 29.3598 29.8881 30.7425 29.7045 32.0232C31.1249 32.2329 32.1855 32.0911 33.5687 32.4056C33.7121 32.4368 33.8585 32.4509 33.9962 32.4509C34.9202 32.4509 35.7523 31.7766 35.9532 30.7991C36.1914 29.6714 35.497 28.5607 34.4152 28.3198Z" fill="#FF0000"/>
<path d="M8.42099 27.3566C8.39516 26.9202 8.36934 26.481 8.34925 26.0277C8.33777 25.7869 8.33776 25.5602 8.33489 25.3307C7.59168 26.0985 6.89156 26.8409 6.23157 27.5521C4.71358 29.1926 3.78492 30.2522 2.77771 31.4479C1.14782 33.3803 0.557851 34.2274 0.420114 34.4087C-0.257097 35.3211 -0.099275 36.6329 0.775933 37.3413C1.14323 37.636 1.57654 37.7805 2.0041 37.7805C2.60384 37.7805 3.19784 37.5028 3.59096 36.9729C3.63975 36.9078 4.80822 35.2306 8.11106 31.584H8.11393C8.33775 31.5613 8.57598 31.5472 8.81702 31.5273C8.79119 31.3205 8.76536 31.108 8.73954 30.8983C8.60467 29.7876 8.4956 28.6118 8.42099 27.3566Z" fill="#FF0000"/>
</svg>
