<svg width="58" height="38" viewBox="0 0 58 38" fill="none" xmlns="http://www.w3.org/2000/svg">
<path fill-rule="evenodd" clip-rule="evenodd" d="M9.88294 1.43445C11.0237 2.29131 11.2539 3.91071 10.397 5.05148C7.47843 8.93706 5.75001 13.763 5.75001 19C5.75001 24.237 7.47843 29.0629 10.397 32.9485C11.2539 34.0893 11.0237 35.7087 9.88294 36.5655C8.74217 37.4224 7.12277 37.1923 6.2659 36.0515C2.69836 31.3019 0.583344 25.3942 0.583344 19C0.583344 12.6058 2.69836 6.69808 6.2659 1.9485C7.12277 0.80773 8.74217 0.577579 9.88294 1.43445ZM48.1171 1.43445C49.2578 0.577579 50.8772 0.80773 51.7341 1.9485C55.3017 6.69808 57.4167 12.6058 57.4167 19C57.4167 25.3942 55.3017 31.3019 51.7341 36.0515C50.8772 37.1923 49.2578 37.4224 48.1171 36.5655C46.9763 35.7087 46.7462 34.0893 47.603 32.9485C50.5216 29.0629 52.25 24.237 52.25 19C52.25 13.763 50.5216 8.93706 47.603 5.05148C46.7462 3.91071 46.9763 2.29131 48.1171 1.43445ZM29 31.9167C36.1337 31.9167 41.9167 26.1337 41.9167 19C41.9167 11.8663 36.1337 6.08333 29 6.08333C21.8663 6.08333 16.0833 11.8663 16.0833 19C16.0833 26.1337 21.8663 31.9167 29 31.9167ZM29 37.0833C38.9872 37.0833 47.0833 28.9872 47.0833 19C47.0833 9.01285 38.9872 0.916665 29 0.916665C19.0129 0.916665 10.9167 9.01285 10.9167 19C10.9167 28.9872 19.0129 37.0833 29 37.0833ZM37.5838 21.3033C37.6132 21.4379 37.6279 21.5871 37.6279 21.7511C37.6279 21.9487 37.5964 22.1253 37.5333 22.2809C37.4703 22.4365 37.3651 22.5605 37.218 22.653C37.075 22.7455 36.8816 22.7917 36.6377 22.7917C36.4233 22.7917 36.232 22.7644 36.0638 22.7098C35.8998 22.6509 35.7611 22.5647 35.6476 22.4512C35.534 22.3334 35.4499 22.1779 35.3953 21.9845C35.3406 21.7868 35.3133 21.5493 35.3133 21.2718H33.4653C33.4653 21.7931 33.5473 22.2451 33.7113 22.6278C33.8753 23.0062 34.1002 23.3194 34.3862 23.5675C34.6763 23.8114 35.0105 23.9943 35.389 24.1162C35.7674 24.2339 36.1689 24.2928 36.5936 24.2928C37.0309 24.2928 37.4261 24.2318 37.7793 24.1099C38.1367 23.988 38.4415 23.8156 38.6938 23.5927C38.9461 23.3657 39.1374 23.0966 39.2677 22.7854C39.4023 22.4701 39.4696 22.1211 39.4696 21.7385C39.4696 21.3517 39.4149 21.0069 39.3056 20.7041C39.1963 20.4014 39.0344 20.1302 38.82 19.8905C38.6055 19.6467 38.3385 19.428 38.019 19.2346C37.6994 19.037 37.3315 18.8562 36.9153 18.6922C36.7008 18.6081 36.5032 18.5219 36.3224 18.4336C36.1458 18.3453 35.9923 18.2549 35.862 18.1624C35.7316 18.0657 35.6286 17.9585 35.5529 17.8408C35.4815 17.7188 35.4457 17.5822 35.4457 17.4308C35.4457 17.229 35.4815 17.0482 35.5529 16.8884C35.6286 16.7244 35.7422 16.5962 35.8935 16.5037C36.0491 16.407 36.2446 16.3586 36.4801 16.3586C36.7323 16.3586 36.9384 16.4154 37.0982 16.5289C37.2579 16.6425 37.3736 16.8001 37.445 17.002C37.5207 17.1996 37.5586 17.4287 37.5586 17.6894H39.4002C39.4002 17.1386 39.2804 16.6509 39.0407 16.2262C38.8052 15.8015 38.471 15.4673 38.0379 15.2234C37.609 14.9795 37.1003 14.8576 36.5116 14.8576C36.0785 14.8576 35.6854 14.9186 35.3322 15.0405C34.9832 15.1624 34.6784 15.3369 34.4177 15.564C34.157 15.7868 33.9552 16.0559 33.8122 16.3713C33.6735 16.6866 33.6041 17.0377 33.6041 17.4245C33.6041 17.8198 33.6777 18.1645 33.8248 18.4589C33.9762 18.749 34.1801 19.0013 34.4366 19.2157C34.6931 19.4301 34.9811 19.6193 35.3007 19.7833C35.6202 19.9431 35.9503 20.0945 36.2909 20.2374C36.5768 20.3594 36.808 20.4771 36.9846 20.5906C37.1654 20.7041 37.3021 20.8177 37.3946 20.9312C37.4913 21.0447 37.5544 21.1688 37.5838 21.3033ZM22.7183 14.9837H22.2579H21.4821H21.0406L18.1709 24.1667H20.1198L20.615 22.2746H23.1534L23.6517 24.1667H25.6132L22.7183 14.9837ZM22.7497 20.742H21.0161L21.8801 17.4403L22.7497 20.742ZM28.3378 22.6404V20.1617H29.5866H29.5929C29.8283 20.1617 30.0154 20.2143 30.1542 20.3194C30.2929 20.4203 30.3917 20.5675 30.4506 20.7609C30.5137 20.9543 30.5452 21.1814 30.5452 21.4421C30.5452 21.6733 30.5116 21.8793 30.4443 22.0601C30.377 22.2367 30.2677 22.3776 30.1163 22.4827C29.965 22.5878 29.7674 22.6404 29.5235 22.6404H28.3378ZM31.3084 19.3229C31.2465 19.362 31.181 19.3977 31.1117 19.4302C31.2807 19.4777 31.4304 19.5471 31.5606 19.6383C31.855 19.8401 32.0652 20.105 32.1913 20.4329C32.3217 20.7567 32.3868 21.1015 32.3868 21.4673C32.3868 22.0559 32.2754 22.5521 32.0526 22.9557C31.8339 23.3552 31.5123 23.6579 31.0876 23.8639C30.6629 24.0658 30.1416 24.1667 29.5235 24.1667H28.3378H27.1836H26.4898V14.9837H29.3217C29.78 14.9837 30.1899 15.0342 30.5515 15.1351C30.9131 15.236 31.2201 15.3895 31.4723 15.5955C31.7246 15.8015 31.9159 16.0622 32.0463 16.3776C32.1808 16.6929 32.2481 17.065 32.2481 17.4939C32.2481 17.8723 32.1724 18.2213 32.021 18.5409C31.8697 18.8604 31.6321 19.1211 31.3084 19.3229ZM29.9208 18.6985C29.761 18.7826 29.555 18.8247 29.3027 18.8247H28.3378V16.5163H29.3217C29.5781 16.5163 29.7863 16.5563 29.9461 16.6362C30.1058 16.716 30.2215 16.8422 30.2929 17.0146C30.3644 17.1828 30.4002 17.4077 30.4002 17.6894C30.4002 17.9333 30.3602 18.1414 30.2803 18.3138C30.2046 18.482 30.0848 18.6102 29.9208 18.6985Z" fill="#FF0000"/>
</svg>
