<svg width="72" height="78" viewBox="0 0 72 78" fill="none" xmlns="http://www.w3.org/2000/svg">
<path d="M0 74.8919C0 76.5782 1.40848 78 3.15231 78H54.8971C56.6074 78 58.0494 76.5782 58.0494 74.8919C58.0494 73.2056 56.6409 71.7838 54.8971 71.7838H52.3149V50.3908C54.2934 50.6884 55.5007 52.011 55.5007 54.061V59.5167C55.5007 64.4765 58.8542 67.783 63.8845 67.783C68.7471 67.783 72 64.4765 72 59.5167V25.3277C72 20.9962 71.1952 17.3921 69.619 14.5816C68.0093 11.9033 65.6283 10.0848 62.5431 9.15897C61.1681 8.72912 59.6255 9.55574 59.1896 10.9114C58.7871 12.3332 59.592 13.8542 61.034 14.251C62.8114 14.7139 65.2594 16.1026 66.232 20.7978H61.7382C60.095 20.7978 58.8207 22.0543 58.8207 23.6744V36.8012C58.8207 38.3883 60.1286 39.6448 61.7382 39.6448H66.6344V59.5167C66.6344 61.2692 65.5277 62.4265 63.918 62.4265C62.0736 62.4265 60.8328 61.2692 60.8328 59.5167V53.9949C60.8328 48.6384 57.6805 45.3319 52.3149 45.0343V8.99364C52.3149 3.14116 49.129 0 43.1933 0H14.8561C8.92035 0 5.73451 3.14116 5.73451 8.99364V71.7838H3.15231C1.44201 71.7838 0 73.2056 0 74.8919ZM16.1975 37.0988C13.6153 37.0988 12.0391 35.677 12.0391 33.3624V9.95252C12.0391 7.63798 13.6153 6.21619 16.1975 6.21619H41.8519C44.4341 6.21619 46.0102 7.63798 46.0102 9.95252V33.3624C46.0102 35.677 44.4341 37.0988 41.8519 37.0988H16.1975Z" fill="white"/>
</svg>
