<svg width="52" height="72" viewBox="0 0 52 72" fill="none" xmlns="http://www.w3.org/2000/svg">
<g clip-path="url(#clip0_2_392)">
<path fill-rule="evenodd" clip-rule="evenodd" d="M20.8 3.57645C20.8 2.85848 21.382 2.27645 22.1 2.27645H29.9C30.618 2.27645 31.2 2.85848 31.2 3.57645V9.79525C36.5266 11.8877 40.3 17.1 40.3 23.1988C40.3 31.1429 33.8977 37.5829 26 37.5829C18.1023 37.5829 11.7 31.1429 11.7 23.1988C11.7 17.1 15.4734 11.8877 20.8 9.79525V3.57645ZM26 32.3523C31.0258 32.3523 35.1 28.2541 35.1 23.1988C35.1 18.1434 31.0258 14.0453 26 14.0453C20.9742 14.0453 16.9 18.1434 16.9 23.1988C16.9 28.2541 20.9742 32.3523 26 32.3523ZM24.7 41.5059C23.982 41.5059 23.4 42.0879 23.4 42.8059V48.0518C23.4 48.7697 23.982 49.3518 24.7 49.3518H27.3C28.018 49.3518 28.6 48.7697 28.6 48.0518V42.8059C28.6 42.0879 28.018 41.5059 27.3 41.5059H24.7ZM37.92 38.888C37.4139 38.3788 37.4138 37.5533 37.92 37.0441L39.7639 35.1894C40.2701 34.6802 41.0908 34.6802 41.597 35.1894L45.2794 38.8934C45.7855 39.4026 45.7855 40.2281 45.2794 40.7373L43.4355 42.592C42.9293 43.1012 42.1086 43.1012 41.6024 42.592L37.92 38.888ZM12.2362 35.1893C11.73 34.6801 10.9093 34.6801 10.4031 35.1893L6.72072 38.8933C6.21453 39.4025 6.21453 40.228 6.72072 40.7372L8.5646 42.5919C9.07079 43.1011 9.89149 43.1011 10.3977 42.5919L14.08 38.8879C14.5862 38.3787 14.5862 37.5532 14.08 37.044L12.2362 35.1893ZM37.92 7.51032C37.4139 8.01948 37.4138 8.84501 37.92 9.35418L39.7639 11.2089C40.2701 11.7181 41.0908 11.7181 41.597 11.2089L45.2794 7.50489C45.7855 6.99572 45.7855 6.17019 45.2794 5.66103L43.4355 3.8063C42.9293 3.29713 42.1086 3.29713 41.6024 3.8063L37.92 7.51032ZM12.2362 11.209C11.73 11.7181 10.9093 11.7181 10.4031 11.209L6.72072 7.50495C6.21453 6.99578 6.21453 6.17026 6.72072 5.66109L8.5646 3.80637C9.07079 3.2972 9.89149 3.2972 10.3977 3.80637L14.08 7.51038C14.5862 8.01955 14.5862 8.84508 14.08 9.35424L12.2362 11.209ZM44.2 21.8835C44.2 21.1655 44.782 20.5835 45.5 20.5835H50.7C51.418 20.5835 52 21.1655 52 21.8835V24.5141C52 25.2321 51.418 25.8141 50.7 25.8141H45.5C44.782 25.8141 44.2 25.2321 44.2 24.5141V21.8835ZM1.3 20.5835C0.58203 20.5835 0 21.1655 0 21.8835V24.5141C0 25.2321 0.582029 25.8141 1.3 25.8141H6.5C7.21797 25.8141 7.8 25.2321 7.8 24.5141V21.8835C7.8 21.1655 7.21797 20.5835 6.5 20.5835H1.3Z" fill="#32D74B"/>
<path d="M6.61966 65.3H5.88841L9.9823 53.9545H10.78L14.8739 65.3H14.1427L10.4089 54.8465H10.3535L6.61966 65.3ZM7.6556 61.0288H13.1067V61.6715H7.6556V61.0288ZM24.6738 53.9545H25.3663V61.4665C25.3663 62.2384 25.1871 62.9271 24.8289 63.5328C24.4707 64.1348 23.9758 64.6112 23.3442 64.9621C22.7164 65.3092 21.9944 65.4828 21.1782 65.4828C20.3657 65.4828 19.6437 65.3092 19.0121 64.9621C18.3806 64.6112 17.8839 64.133 17.5219 63.5273C17.1637 62.9216 16.9864 62.2347 16.9901 61.4665V53.9545H17.6826V61.4277C17.6826 62.0814 17.8303 62.6631 18.1258 63.1727C18.4249 63.6824 18.8367 64.0849 19.3611 64.3804C19.8856 64.6722 20.4913 64.818 21.1782 64.818C21.8651 64.818 22.4708 64.6722 22.9952 64.3804C23.5197 64.0849 23.9296 63.6824 24.2251 63.1727C24.5242 62.6631 24.6738 62.0814 24.6738 61.4277V53.9545ZM27.891 54.5972V53.9545H35.8406V54.5972H32.212V65.3H31.5196V54.5972H27.891ZM46.916 59.6273C46.916 60.798 46.7128 61.821 46.3066 62.6963C45.9003 63.5679 45.3353 64.2456 44.6114 64.7294C43.8913 65.2132 43.0603 65.4551 42.1185 65.4551C41.1731 65.4551 40.3384 65.2132 39.6145 64.7294C38.8944 64.2419 38.3312 63.5624 37.9249 62.6908C37.5187 61.8155 37.3155 60.7943 37.3155 59.6273C37.3155 58.4565 37.5187 57.4354 37.9249 56.5638C38.3349 55.6922 38.8999 55.0145 39.6201 54.5307C40.3403 54.0432 41.1731 53.7994 42.1185 53.7994C43.0603 53.7994 43.8913 54.0413 44.6114 54.5251C45.3353 55.009 45.9003 55.6885 46.3066 56.5638C46.7128 57.4354 46.916 58.4565 46.916 59.6273ZM46.2401 59.6273C46.2401 58.5747 46.0628 57.6625 45.7083 56.8906C45.3574 56.1188 44.8718 55.5223 44.2513 55.1013C43.6309 54.6766 42.9199 54.4642 42.1185 54.4642C41.3171 54.4642 40.6062 54.6747 39.9857 55.0957C39.3653 55.5131 38.8778 56.1095 38.5232 56.8851C38.1724 57.657 37.9969 58.571 37.9969 59.6273C37.9969 60.6724 38.1705 61.5828 38.5177 62.3584C38.8685 63.1303 39.3542 63.7286 39.9746 64.1533C40.5951 64.578 41.3097 64.7903 42.1185 64.7903C42.9199 64.7903 43.6309 64.5798 44.2513 64.1588C44.8718 63.7341 45.3574 63.1358 45.7083 62.3639C46.0628 61.592 46.2401 60.6798 46.2401 59.6273Z" fill="#32D74B"/>
</g>
<defs>
<clipPath id="clip0_2_392">
<rect width="52" height="70.2" fill="white" transform="translate(0 0.899994)"/>
</clipPath>
</defs>
</svg>
