<svg width="51" height="55" viewBox="0 0 51 55" fill="none" xmlns="http://www.w3.org/2000/svg">
<g filter="url(#filter0_d_4_17)">
<path d="M19.1409 24.3681L5.85963 27.6884C4.72106 27.9731 4.02882 29.1268 4.31346 30.2654C4.5981 31.4039 5.75184 32.0962 6.8904 31.8115L19.2266 28.7275C19.1989 28.2947 19.1768 27.8581 19.1604 27.4184L19.1594 27.3917L19.1288 26.1447V24.8553L19.1409 24.3681Z" fill="#32D74B"/>
<path d="M19.3938 30.6799L5.85963 34.0634C4.72106 34.3481 4.02882 35.5018 4.31346 36.6404C4.5981 37.7789 5.75184 38.4712 6.8904 38.1865L20.0825 34.8885C19.7822 33.5673 19.5527 32.1541 19.3938 30.6799Z" fill="#32D74B"/>
<path d="M21.2642 38.7123L5.85963 42.5634C4.72106 42.8481 4.02882 44.0018 4.31346 45.1404C4.5981 46.2789 5.75184 46.9712 6.8904 46.6865L23.5827 42.5135C22.6399 41.4989 21.9063 40.2232 21.3541 38.927C21.3238 38.856 21.2938 38.7844 21.2642 38.7123Z" fill="#32D74B"/>
<path d="M23.563 8.50774C23.3332 8.48734 23.0961 8.50432 22.8596 8.56343L5.85963 12.8134C4.72106 13.0981 4.02882 14.2518 4.31346 15.3904C4.5981 16.5289 5.75184 17.2212 6.8904 16.9365L20.828 13.4521C20.9915 12.9728 21.1669 12.5123 21.3541 12.073C21.9025 10.7858 22.6297 9.51887 23.563 8.50774Z" fill="#32D74B"/>
<path d="M19.7379 17.8439L5.85963 21.3134C4.72106 21.5981 4.02882 22.7518 4.31346 23.8904C4.5981 25.0289 5.75184 25.7212 6.8904 25.4365L19.2215 22.3538C19.3192 20.7897 19.4913 19.2752 19.7379 17.8439Z" fill="#32D74B"/>
<path fill-rule="evenodd" clip-rule="evenodd" d="M21.2839 23.6607C21.5993 15.1954 24.0977 8.5 28.0972 8.5C30.5854 8.5 34.8459 9.52252 38.2761 11.4223C43.5474 14.3418 46.75 19.0159 46.75 25.5C46.75 31.9841 43.5474 36.6582 38.2761 39.5777C34.8459 41.4775 30.5854 42.5 28.0972 42.5C24.0977 42.5 21.5993 35.8046 21.2839 27.3393L21.2538 26.1185V24.8815L21.2839 23.6607ZM36.217 15.1402C33.4406 13.6025 29.8886 12.75 28.0972 12.75L28.1673 12.7522C28.2422 12.7587 28.2439 12.7834 28.1863 12.8656L27.8855 13.2827C27.5404 13.8144 27.187 14.5859 26.8667 15.547C26.0098 18.1176 25.5 21.6569 25.5 25.5C25.5 29.3431 26.0098 32.8824 26.8667 35.453C27.2404 36.5743 27.6591 37.4375 28.0571 37.9629L28.1863 38.1344C28.2448 38.2179 28.2421 38.242 28.1638 38.2481L28.4531 38.2401C30.3295 38.1408 33.6141 37.3014 36.217 35.8598C40.2206 33.6424 42.5 30.3157 42.5 25.5C42.5 20.6843 40.2206 17.3576 36.217 15.1402Z" fill="#32D74B"/>
</g>
<defs>
<filter id="filter0_d_4_17" x="-4" y="0" width="59" height="59" filterUnits="userSpaceOnUse" color-interpolation-filters="sRGB">
<feFlood flood-opacity="0" result="BackgroundImageFix"/>
<feColorMatrix in="SourceAlpha" type="matrix" values="0 0 0 0 0 0 0 0 0 0 0 0 0 0 0 0 0 0 127 0" result="hardAlpha"/>
<feOffset dy="4"/>
<feGaussianBlur stdDeviation="2"/>
<feComposite in2="hardAlpha" operator="out"/>
<feColorMatrix type="matrix" values="0 0 0 0 0 0 0 0 0 0 0 0 0 0 0 0 0 0 0.25 0"/>
<feBlend mode="normal" in2="BackgroundImageFix" result="effect1_dropShadow_4_17"/>
<feBlend mode="normal" in="SourceGraphic" in2="effect1_dropShadow_4_17" result="shape"/>
</filter>
</defs>
</svg>
