<svg width="253" height="183" viewBox="0 0 253 183" fill="none" xmlns="http://www.w3.org/2000/svg">
<g filter="url(#filter0_f_602_1254)">
<ellipse cx="126.629" cy="148.417" rx="48.5792" ry="19.2833" fill="black"/>
</g>
<g filter="url(#filter1_f_602_1254)">
<path d="M237.508 47.1792C237.508 47.1792 187.866 78.7 126.629 78.7C65.3923 78.7 15.75 47.1792 15.75 47.1792C15.75 29.7707 65.3923 15.6583 126.629 15.6583C187.866 15.6583 237.508 29.7707 237.508 47.1792Z" fill="url(#paint0_linear_602_1254)" fill-opacity="0.4"/>
</g>
<g filter="url(#filter2_f_602_1254)">
<path d="M189.3 61.2708C189.3 71.7159 161.241 80.1833 126.629 80.1833C92.017 80.1833 63.9583 71.7159 63.9583 61.2708C63.9583 50.8257 92.017 51.2583 126.629 51.2583C161.241 51.2583 189.3 50.8257 189.3 61.2708Z" fill="white" fill-opacity="0.3"/>
</g>
<path d="M92.8833 158.058C90.51 158.355 89.4222 159.665 89.175 160.283H82.1292C80.1514 158.182 76.1958 151.902 76.1958 143.596C76.1958 133.212 76.1958 126.908 77.6792 124.683C79.1625 122.458 83.6125 106.883 84.3542 99.0958C85.0958 91.3083 86.5792 74.6208 88.4333 71.2833C90.2875 67.9458 92.5125 64.9792 95.85 63.8667C99.1875 62.7542 101.412 62.7542 102.896 62.7542C104.082 62.7542 105.615 63.9903 106.233 64.6083C110.312 64.3611 120.622 63.8667 126.258 63.8667H126.629C132.266 63.8667 142.575 64.3611 146.654 64.6083C147.272 63.9903 148.805 62.7542 149.992 62.7542C151.475 62.7542 153.7 62.7542 157.037 63.8667C160.375 64.9792 162.6 67.9458 164.454 71.2833C166.308 74.6208 167.792 91.3083 168.533 99.0958C169.275 106.883 173.725 122.458 175.208 124.683C176.692 126.908 176.692 133.212 176.692 143.596C176.692 151.902 172.736 158.182 170.758 160.283H163.712C163.465 159.665 162.377 158.355 160.004 158.058C157.037 157.687 131.821 157.317 126.629 157.317H126.258C121.067 157.317 95.85 157.687 92.8833 158.058Z" fill="#F7F7F7"/>
<path fill-rule="evenodd" clip-rule="evenodd" d="M81.081 114.759C84.4128 114.07 89.0667 112.147 90.2876 107.996C90.7717 106.35 91.1546 104.325 91.5619 102.171C92.7145 96.0767 94.0617 88.9536 98.4459 86.4875H153.329C157.713 88.9536 159.061 96.0767 160.213 102.171C160.621 104.325 161.003 106.35 161.488 107.996C162.86 112.661 168.568 114.513 171.862 114.96C170.373 109.59 168.928 103.24 168.533 99.0958C168.491 98.6487 168.446 98.1723 168.398 97.6707C167.62 89.4361 166.202 74.4292 164.454 71.2833C162.6 67.9458 160.375 64.9792 157.038 63.8667C153.7 62.7542 151.475 62.7542 149.992 62.7542C148.805 62.7542 147.272 63.9903 146.654 64.6083C142.575 64.3611 132.266 63.8667 126.629 63.8667H126.258C120.622 63.8667 110.313 64.3611 106.233 64.6083C105.615 63.9903 104.083 62.7542 102.896 62.7542C101.413 62.7542 99.1876 62.7542 95.8501 63.8667C92.5126 64.9792 90.2876 67.9458 88.4334 71.2833C86.6857 74.4292 85.2675 89.4362 84.4892 97.6708C84.4418 98.1723 84.3968 98.6487 84.3542 99.0958C83.9645 103.189 82.5504 109.432 81.081 114.759Z" fill="white"/>
<path d="M94.5521 69.4292C94.5521 69.3542 94.5069 69.2866 94.4376 69.2579C94.3684 69.2292 94.2886 69.245 94.2356 69.2981C93.2836 70.25 92.438 71.7126 91.7042 73.4597C90.9691 75.2099 90.3405 77.2597 89.8291 79.3985C88.8064 83.6752 88.2479 88.3251 88.2479 91.6792C88.2479 95.0357 88.8071 97.382 89.517 98.8964C89.8718 99.6533 90.2665 100.207 90.6522 100.574C91.0336 100.938 91.4249 101.135 91.7708 101.135C92.0994 101.135 92.4376 100.999 92.7527 100.777C93.0693 100.554 93.3738 100.235 93.6387 99.8498C94.1684 99.0794 94.5521 98.0234 94.5521 96.8708V69.4292Z" fill="#252525" stroke="#A3A3A3" stroke-width="0.370833" stroke-linejoin="round"/>
<path d="M96.5917 103.917V68.6875C99.0639 67.575 107.123 65.35 119.583 65.35H131.45C143.91 65.35 151.969 67.575 154.442 68.6875V103.917C154.442 109.479 149.621 114.3 135.158 114.3H115.875C101.413 114.3 96.5917 109.479 96.5917 103.917Z" fill="#545454"/>
<path d="M96.5917 103.917V68.6875C99.0639 67.575 107.123 65.35 119.583 65.35H131.45C143.91 65.35 151.969 67.575 154.442 68.6875V103.917C154.442 109.479 149.621 114.3 135.158 114.3H115.875C101.413 114.3 96.5917 109.479 96.5917 103.917Z" fill="url(#paint1_radial_602_1254)"/>
<g filter="url(#filter3_f_602_1254)">
<rect x="104.008" y="66.0917" width="43.0167" height="9.64167" fill="url(#paint2_radial_602_1254)" fill-opacity="0.3"/>
</g>
<path d="M156.852 69.4292C156.852 69.3542 156.897 69.2866 156.967 69.2579C157.036 69.2292 157.116 69.245 157.169 69.2981C158.121 70.25 158.966 71.7126 159.7 73.4597C160.435 75.2099 161.064 77.2597 161.575 79.3985C162.598 83.6752 163.156 88.3251 163.156 91.6792C163.156 95.0357 162.597 97.382 161.887 98.8964C161.532 99.6533 161.138 100.207 160.752 100.574C160.371 100.938 159.979 101.135 159.633 101.135C159.305 101.135 158.967 100.999 158.651 100.777C158.335 100.554 158.03 100.235 157.765 99.8498C157.236 99.0794 156.852 98.0234 156.852 96.8708V69.4292Z" fill="#252525" stroke="#A3A3A3" stroke-width="0.370833" stroke-linejoin="round"/>
<path d="M97.7042 83.15C100.547 81.6666 110.016 78.7 125.146 78.7C140.276 78.7 149.992 81.6666 152.958 83.15" stroke="black" stroke-opacity="0.4" stroke-width="0.741667" stroke-linecap="round" stroke-linejoin="round"/>
<path fill-rule="evenodd" clip-rule="evenodd" d="M96.5917 101.692V103.917C96.5917 109.479 101.413 114.3 115.875 114.3H135.158C149.621 114.3 154.442 109.479 154.442 103.917V101.692C154.442 107.254 149.621 112.075 135.158 112.075H115.875C101.413 112.075 96.5917 107.254 96.5917 101.692Z" fill="#F2F2F2" fill-opacity="0.1"/>
<rect x="115.504" y="111.333" width="19.2833" height="1.48333" fill="#D0021B" fill-opacity="0.4"/>
<path d="M98.4458 123.942C101.182 123.942 103.067 126.897 103.969 129.091C104.181 129.607 103.722 130.121 103.171 130.034C101.608 129.789 99.2139 129.504 96.9625 129.504C93.2542 129.504 89.175 131.358 87.3208 131.358C85.4667 131.358 81.0167 131.358 81.0167 127.65C81.0167 125.182 81.8723 123.056 82.5157 121.913C82.7025 121.581 83.1217 121.489 83.4634 121.656C84.6124 122.22 86.7251 123.081 89.175 123.571C92.8833 124.312 94.3667 123.942 98.4458 123.942Z" fill="#6D0000"/>
<g filter="url(#filter4_f_602_1254)">
<path d="M101.783 128.762C101.536 127.65 100.523 125.351 98.4458 125.054C95.85 124.683 91.4 125.425 89.175 124.683C86.95 123.942 85.0959 123.57 83.2417 124.312C81.3875 125.054 81.7583 129.381 84.725 129.875C87.6917 130.369 88.9278 129.628 90.2875 129.504M89.9166 128.021C90.0402 127.897 89.9908 127.576 88.8041 127.279C87.3208 126.908 86.5791 127.65 85.8374 127.279C85.2441 126.982 85.5902 126.414 85.8374 126.167" stroke="#FB4E4E" stroke-width="0.741667" stroke-linecap="round" stroke-linejoin="round"/>
</g>
<path d="M152.958 123.942C150.222 123.942 148.337 126.897 147.435 129.091C147.223 129.607 147.682 130.121 148.233 130.034C149.796 129.789 152.19 129.504 154.442 129.504C158.15 129.504 162.229 131.358 164.083 131.358C165.938 131.358 170.388 131.358 170.388 127.65C170.388 125.182 169.532 123.056 168.888 121.913C168.702 121.581 168.282 121.489 167.941 121.656C166.792 122.22 164.679 123.081 162.229 123.571C158.521 124.312 157.038 123.942 152.958 123.942Z" fill="#6D0000"/>
<g filter="url(#filter5_f_602_1254)">
<path d="M149.621 128.762C149.868 127.65 150.882 125.351 152.958 125.054C155.554 124.683 160.004 125.425 162.229 124.683C164.454 123.942 166.308 123.57 168.162 124.312C170.017 125.054 169.646 129.381 166.679 129.875C163.712 130.369 162.476 129.628 161.117 129.504M161.488 128.021C161.364 127.897 161.413 127.576 162.6 127.279C164.083 126.908 164.825 127.65 165.567 127.279C166.16 126.982 165.814 126.414 165.567 126.167" stroke="#FB4E4E" stroke-width="0.741667" stroke-linecap="round" stroke-linejoin="round"/>
</g>
<path d="M92.1417 123.942C92.2653 129.504 93.8475 140.629 99.1875 140.629H152.217C157.557 140.629 159.139 129.504 159.262 123.942" stroke="black" stroke-opacity="0.4" stroke-width="0.741667"/>
<g filter="url(#filter6_f_602_1254)">
<path d="M126.59 131.358C92.7784 131.358 87.0683 113.205 88.4397 104.128L87.6917 79.923L112.377 66.0917L160.252 72.1429L166.236 104.128C167.109 113.205 160.402 131.358 126.59 131.358Z" fill="black" fill-opacity="0.1"/>
</g>
<rect x="117.729" y="131.729" width="17.0583" height="7.41667" rx="0.370833" fill="#E9E9E9" stroke="#CCCCCC" stroke-width="0.741667"/>
<path fill-rule="evenodd" clip-rule="evenodd" d="M129.059 124.01C128.069 123.631 127.103 123.51 126.258 123.516H126.258C125.414 123.51 124.447 123.631 123.458 124.01C123.34 123.822 123.292 123.708 123.292 123.708C124.373 123.332 125.386 123.203 126.258 123.2C127.13 123.203 128.143 123.332 129.225 123.708C129.225 123.708 129.191 123.8 129.059 124.01ZM127.089 124.289L126.259 128.392L125.422 124.289C124.636 124.289 124.387 124.366 124.351 124.677C124.351 124.677 123.82 124.503 123.552 124.15C124.597 123.724 125.646 123.705 125.646 123.705L126.258 124.36L126.87 123.705C126.87 123.705 127.919 123.724 128.964 124.15C128.696 124.503 128.166 124.677 128.166 124.677C128.129 124.366 127.88 124.289 127.089 124.289Z" fill="#888585"/>
<path d="M126.258 120.233C114.985 120.233 104.997 121.222 101.413 121.717H151.475C147.767 121.222 137.532 120.233 126.258 120.233Z" fill="black" fill-opacity="0.1"/>
<path d="M126.258 132.1C114.985 132.1 104.997 131.111 101.413 130.617H151.475C147.767 131.111 137.532 132.1 126.258 132.1Z" fill="#C9C9C9"/>
<path d="M100.3 152.867L97.7042 155.463C96.2208 154.869 87.9389 155.215 83.9833 155.463C83.9833 155.463 85.7633 154.498 89.9167 153.608C94.07 152.718 98.5694 152.743 100.3 152.867Z" fill="#510000"/>
<path d="M151.475 152.867L154.071 155.463C155.554 154.869 163.836 155.215 167.792 155.463C167.792 155.463 166.012 154.498 161.858 153.608C157.705 152.718 153.206 152.743 151.475 152.867Z" fill="#510000"/>
<path d="M87.6917 122.829H162.6" stroke="white" stroke-width="0.741667"/>
<path d="M85.4667 78.7H87.3208V80.925H85.4667C85.4667 82.4083 83.6125 83.5208 80.6458 83.5208C77.3083 83.5208 75.0833 83.15 75.0833 80.925C75.0833 77.5875 81.0167 75.7333 83.2417 75.7333C85.0217 75.7333 85.4667 77.7111 85.4667 78.7Z" fill="white"/>
<path fill-rule="evenodd" clip-rule="evenodd" d="M83.5534 83.0617C82.7806 83.3533 81.797 83.5208 80.6459 83.5208C77.9584 83.5208 75.9922 83.2804 75.3283 82.025C76.3781 80.2933 80.5163 78.3292 82.1292 78.3292C83.9834 78.3292 84.3542 79.8125 84.3542 80.925C84.3542 81.6038 83.9227 82.4696 83.5534 83.0617Z" fill="#A8A5A5"/>
<path d="M167.421 78.7H165.567V80.925H167.421C167.421 82.4083 169.275 83.5208 172.242 83.5208C175.579 83.5208 177.804 83.15 177.804 80.925C177.804 77.5875 171.871 75.7333 169.646 75.7333C167.866 75.7333 167.421 77.7111 167.421 78.7Z" fill="white"/>
<path fill-rule="evenodd" clip-rule="evenodd" d="M169.334 83.0617C170.107 83.3533 171.091 83.5208 172.242 83.5208C174.929 83.5208 176.895 83.2804 177.559 82.025C176.509 80.2933 172.371 78.3292 170.758 78.3292C168.904 78.3292 168.533 79.8125 168.533 80.925C168.533 81.6038 168.965 82.4696 169.334 83.0617Z" fill="#A8A5A5"/>
<g filter="url(#filter7_f_602_1254)">
<rect x="88.4333" y="138.033" width="74.1667" height="10.3833" rx="5.19167" fill="black" fill-opacity="0.1"/>
</g>
<defs>
<filter id="filter0_f_602_1254" x="63.2167" y="114.3" width="126.825" height="68.2333" filterUnits="userSpaceOnUse" color-interpolation-filters="sRGB">
<feFlood flood-opacity="0" result="BackgroundImageFix"/>
<feBlend mode="normal" in="SourceGraphic" in2="BackgroundImageFix" result="shape"/>
<feGaussianBlur stdDeviation="7.41667" result="effect1_foregroundBlur_602_1254"/>
</filter>
<filter id="filter1_f_602_1254" x="0.916668" y="0.824993" width="251.425" height="92.7083" filterUnits="userSpaceOnUse" color-interpolation-filters="sRGB">
<feFlood flood-opacity="0" result="BackgroundImageFix"/>
<feBlend mode="normal" in="SourceGraphic" in2="BackgroundImageFix" result="shape"/>
<feGaussianBlur stdDeviation="7.41667" result="effect1_foregroundBlur_602_1254"/>
</filter>
<filter id="filter2_f_602_1254" x="49.125" y="36.4225" width="155.008" height="58.5942" filterUnits="userSpaceOnUse" color-interpolation-filters="sRGB">
<feFlood flood-opacity="0" result="BackgroundImageFix"/>
<feBlend mode="normal" in="SourceGraphic" in2="BackgroundImageFix" result="shape"/>
<feGaussianBlur stdDeviation="7.41667" result="effect1_foregroundBlur_602_1254"/>
</filter>
<filter id="filter3_f_602_1254" x="102.525" y="64.6083" width="45.9833" height="12.6083" filterUnits="userSpaceOnUse" color-interpolation-filters="sRGB">
<feFlood flood-opacity="0" result="BackgroundImageFix"/>
<feBlend mode="normal" in="SourceGraphic" in2="BackgroundImageFix" result="shape"/>
<feGaussianBlur stdDeviation="0.741667" result="effect1_foregroundBlur_602_1254"/>
</filter>
<filter id="filter4_f_602_1254" x="80.9959" y="122.796" width="21.9001" height="8.35745" filterUnits="userSpaceOnUse" color-interpolation-filters="sRGB">
<feFlood flood-opacity="0" result="BackgroundImageFix"/>
<feBlend mode="normal" in="SourceGraphic" in2="BackgroundImageFix" result="shape"/>
<feGaussianBlur stdDeviation="0.370833" result="effect1_foregroundBlur_602_1254"/>
</filter>
<filter id="filter5_f_602_1254" x="148.508" y="122.796" width="21.9001" height="8.35745" filterUnits="userSpaceOnUse" color-interpolation-filters="sRGB">
<feFlood flood-opacity="0" result="BackgroundImageFix"/>
<feBlend mode="normal" in="SourceGraphic" in2="BackgroundImageFix" result="shape"/>
<feGaussianBlur stdDeviation="0.370833" result="effect1_foregroundBlur_602_1254"/>
</filter>
<filter id="filter6_f_602_1254" x="84.725" y="63.125" width="84.55" height="71.2" filterUnits="userSpaceOnUse" color-interpolation-filters="sRGB">
<feFlood flood-opacity="0" result="BackgroundImageFix"/>
<feBlend mode="normal" in="SourceGraphic" in2="BackgroundImageFix" result="shape"/>
<feGaussianBlur stdDeviation="1.48333" result="effect1_foregroundBlur_602_1254"/>
</filter>
<filter id="filter7_f_602_1254" x="85.4667" y="135.067" width="80.1" height="16.3167" filterUnits="userSpaceOnUse" color-interpolation-filters="sRGB">
<feFlood flood-opacity="0" result="BackgroundImageFix"/>
<feBlend mode="normal" in="SourceGraphic" in2="BackgroundImageFix" result="shape"/>
<feGaussianBlur stdDeviation="1.48333" result="effect1_foregroundBlur_602_1254"/>
</filter>
<linearGradient id="paint0_linear_602_1254" x1="126.226" y1="24.1447" x2="126.631" y2="78.7" gradientUnits="userSpaceOnUse">
<stop offset="0.00552486" stop-color="white" stop-opacity="0.2"/>
<stop offset="1" stop-color="white"/>
</linearGradient>
<radialGradient id="paint1_radial_602_1254" cx="0" cy="0" r="1" gradientUnits="userSpaceOnUse" gradientTransform="translate(125.146 86.8583) rotate(90) scale(35.9708 103.25)">
<stop stop-opacity="0"/>
<stop offset="1"/>
</radialGradient>
<radialGradient id="paint2_radial_602_1254" cx="0" cy="0" r="1" gradientUnits="userSpaceOnUse" gradientTransform="translate(125.517 71.3142) rotate(90) scale(4.4191 25.7588)">
<stop stop-color="white"/>
<stop offset="0.98895" stop-color="white" stop-opacity="0"/>
</radialGradient>
</defs>
</svg>
