<svg width="72" height="62" viewBox="0 0 72 62" fill="none" xmlns="http://www.w3.org/2000/svg">
<g opacity="0.4">
<path fill-rule="evenodd" clip-rule="evenodd" d="M13.3417 18.3561C14.8236 18.9941 15.4243 20.5459 14.6833 21.822C13.9424 23.0981 12.1403 23.6153 10.6584 22.9773L4.65841 20.394C3.17647 19.7559 2.5758 18.2042 3.31677 16.9281C4.05773 15.6519 5.85975 15.1347 7.34169 15.7728L13.3417 18.3561ZM57.3167 21.822C56.5758 20.5459 57.1765 18.9941 58.6584 18.3561L64.6584 15.7728C66.1403 15.1347 67.9423 15.6519 68.6833 16.9281C69.4243 18.2042 68.8236 19.7559 67.3417 20.394L61.3417 22.9773C59.8597 23.6153 58.0577 23.0981 57.3167 21.822ZM23.3334 18.0833C22.1008 18.0833 21.2214 18.6225 20.7286 19.0514C20.2453 19.4719 19.9257 19.9546 19.7114 20.3438C19.2763 21.1337 18.9671 22.1127 18.7369 23.1207C18.2668 25.18 18 27.9403 18 31C18 34.0597 18.2668 36.82 18.7369 38.8793C18.9671 39.8873 19.2763 40.8663 19.7114 41.6562C19.9257 42.0453 20.2453 42.5281 20.7286 42.9486C21.2214 43.3775 22.1007 43.9167 23.3334 43.9167C24.7348 43.9167 27.4961 43.3039 29.9244 41.3968C32.5018 39.3726 34.5 36.0633 34.5 31C34.5 25.9367 32.5018 22.6274 29.9244 20.6032C27.4961 18.6961 24.7348 18.0833 23.3334 18.0833ZM24 31C24 28.1549 24.2518 25.7485 24.6242 24.1174C24.6578 23.9703 24.6915 23.8336 24.7248 23.7071C25.084 23.8766 25.4822 24.1073 25.8812 24.4206C27.0631 25.3488 28.5 27.2062 28.5 31C28.5 34.7938 27.0631 36.6512 25.8812 37.5794C25.4822 37.8927 25.084 38.1234 24.7248 38.2928C24.6915 38.1664 24.6578 38.0297 24.6242 37.8826C24.2518 36.2514 24 33.8451 24 31ZM25.165 22.5039C25.1651 22.504 25.163 22.5073 25.1586 22.5134C25.1628 22.5068 25.165 22.5038 25.165 22.5039ZM25.165 39.4961C25.165 39.4962 25.1628 39.4932 25.1586 39.4866C25.163 39.4927 25.1651 39.496 25.165 39.4961ZM48.6667 18.0833C49.8993 18.0833 50.7787 18.6225 51.2715 19.0514C51.7548 19.4719 52.0744 19.9546 52.2887 20.3438C52.7238 21.1337 53.033 22.1127 53.2631 23.1207C53.7333 25.18 54 27.9403 54 31C54 34.0597 53.7333 36.82 53.2631 38.8793C53.033 39.8873 52.7238 40.8663 52.2887 41.6562C52.0744 42.0453 51.7548 42.5281 51.2715 42.9486C50.7787 43.3775 49.8993 43.9167 48.6667 43.9167C47.2653 43.9167 44.504 43.3039 42.0757 41.3968C39.4983 39.3726 37.5 36.0633 37.5 31C37.5 25.9367 39.4983 22.6274 42.0757 20.6032C44.504 18.6961 47.2653 18.0833 48.6667 18.0833ZM48 31C48 28.1549 47.7482 25.7485 47.3758 24.1174C47.3422 23.9703 47.3086 23.8336 47.2753 23.7071C46.9161 23.8766 46.5179 24.1073 46.1188 24.4206C44.937 25.3488 43.5 27.2062 43.5 31C43.5 34.7938 44.937 36.6512 46.1188 37.5794C46.5179 37.8927 46.9161 38.1234 47.2753 38.2928C47.3086 38.1664 47.3422 38.0297 47.3758 37.8826C47.7482 36.2514 48 33.8451 48 31ZM46.835 22.5039C46.835 22.504 46.8371 22.5073 46.8415 22.5134C46.8373 22.5068 46.8351 22.5038 46.835 22.5039ZM46.835 39.4961C46.8351 39.4962 46.8373 39.4932 46.8415 39.4866C46.8371 39.4927 46.835 39.496 46.835 39.4961ZM57 31C57 29.5733 58.3432 28.4167 60 28.4167H66C67.6569 28.4167 69 29.5733 69 31C69 32.4267 67.6569 33.5833 66 33.5833H60C58.3432 33.5833 57 32.4267 57 31ZM12 28.4167C13.6569 28.4167 15 29.5733 15 31C15 32.4267 13.6569 33.5833 12 33.5833H6.00004C4.34318 33.5833 3.00004 32.4267 3.00004 31C3.00004 29.5733 4.34318 28.4167 6.00004 28.4167H12ZM57.3167 40.178C56.5758 41.4541 57.1765 43.0059 58.6584 43.6439L64.6584 46.2272C66.1403 46.8653 67.9423 46.3481 68.6833 45.0719C69.4243 43.7958 68.8236 42.2441 67.3417 41.606L61.3417 39.0227C59.8597 38.3846 58.0577 38.9019 57.3167 40.178ZM13.3417 43.6439C14.8236 43.0059 15.4243 41.4541 14.6833 40.178C13.9424 38.9019 12.1403 38.3846 10.6584 39.0227L4.65841 41.606C3.17647 42.2441 2.5758 43.7958 3.31677 45.0719C4.05773 46.3481 5.85975 46.8653 7.34169 46.2272L13.3417 43.6439Z" fill="#FFFFFF"/>
</g>
</svg>
