<svg width="51" height="51" viewBox="0 0 51 51" fill="none" xmlns="http://www.w3.org/2000/svg">
<g opacity="0.4">
<path fill-rule="evenodd" clip-rule="evenodd" d="M41.2376 10.4423L41.2464 10.4381C42.3118 9.9581 42.792 8.70603 42.3169 7.63695C41.8402 6.5645 40.5844 6.0815 39.512 6.55815L40.375 8.5C39.512 6.55815 39.5097 6.55916 39.509 6.55949L39.5055 6.56102L39.4975 6.56463L39.4767 6.5741L39.417 6.60198C39.3694 6.62455 39.3063 6.65519 39.2301 6.69393C39.0778 6.77127 38.871 6.88183 38.6276 7.02604C38.1453 7.31186 37.4962 7.74357 36.8382 8.32842C35.9826 9.08899 35.0088 10.2059 34.4531 11.678L32.6078 10.7553C31.5581 10.2305 30.3791 10.698 29.9744 11.7997C29.5697 12.9013 30.0926 14.2198 31.1423 14.7447L34.3877 16.3674C34.9525 17.8602 36.0147 18.8022 36.7554 19.4591L36.8382 19.5327C37.9196 20.4939 38.25 20.8692 38.25 21.7222C38.25 22.4636 37.9807 22.9975 37.3604 23.7566L32.6078 21.3803C31.5581 20.8555 30.3791 21.323 29.9744 22.4247C29.5697 23.5263 30.0926 24.8448 31.1423 25.3697L34.7335 27.1653C34.3052 28.0126 34 29.0201 34 30.2222C34 31.3007 34.2426 32.2191 34.603 33.0029L32.6078 32.0053C31.5581 31.4805 30.3791 31.948 29.9744 33.0497C29.5697 34.1513 30.0926 35.4698 31.1423 35.9947L37.8946 39.3708C37.7856 39.6159 37.6589 39.8441 37.525 40.0523C37.3326 40.3515 37.1407 40.5855 37.0025 40.739C36.9342 40.815 36.8811 40.8688 36.8508 40.8987C36.8373 40.912 36.8285 40.9204 36.825 40.9236C35.9603 41.705 35.886 43.039 36.6618 43.9118C37.4415 44.7889 38.7846 44.8679 39.6618 44.0882L38.25 42.5C39.6618 44.0882 39.6636 44.0866 39.6642 44.0861L39.6668 44.0838L39.6726 44.0785L39.6867 44.0658L39.7238 44.0316C39.7525 44.0048 39.7889 43.9702 39.8319 43.9279C39.9177 43.8434 40.0307 43.7275 40.1615 43.5821C40.4218 43.2929 40.7611 42.8776 41.1 42.3505C41.3009 42.038 41.5073 41.6772 41.6978 41.2724L43.8923 42.3697C44.942 42.8945 46.121 42.4269 46.5257 41.3253C46.9304 40.2237 46.4075 38.9052 45.3578 38.3803L42.423 36.9129C42.2611 36.018 41.8643 35.2791 41.4275 34.6805C40.9765 34.0625 40.3976 33.49 39.9538 33.0512C39.883 32.9812 39.8155 32.9145 39.7526 32.8516C38.7124 31.8114 38.25 31.1768 38.25 30.2222C38.25 29.7953 38.3393 29.4372 38.5335 29.0653L43.8923 31.7447C44.942 32.2695 46.121 31.8019 46.5257 30.7003C46.9304 29.5987 46.4075 28.2802 45.3578 27.7553L41.2266 25.6897C41.9141 24.6799 42.5 23.3878 42.5 21.7222C42.5 21.2264 42.4484 20.7711 42.3577 20.3523L43.8923 21.1197C44.942 21.6445 46.121 21.1769 46.5257 20.0753C46.9304 18.9737 46.4075 17.6552 45.3578 17.1303L38.3078 13.6053C38.4729 12.8111 38.9791 12.1118 39.6618 11.5049C40.0663 11.1453 40.4797 10.8687 40.7943 10.6823C40.9493 10.5904 41.0746 10.5239 41.1547 10.4831C41.1947 10.4629 41.2229 10.4492 41.2376 10.4423ZM24.6535 10.5388C23.9941 9.59265 22.8772 8.49998 21.25 8.49998C19.7312 8.49998 15.6125 9.1134 11.8064 11.4757C7.86714 13.9208 4.25002 18.2704 4.25002 25.5C4.25002 32.7296 7.86714 37.0791 11.8064 39.5242C15.6125 41.8866 19.7312 42.5 21.25 42.5C22.8772 42.5 23.9941 41.4073 24.6535 40.4611C25.3496 39.4624 25.8866 38.1524 26.3019 36.7148C27.1407 33.8114 27.625 29.8822 27.625 25.5C27.625 21.1177 27.1407 17.1885 26.3019 14.2852C25.8866 12.8475 25.3496 11.5376 24.6535 10.5388ZM22.2189 15.4648C22.9149 17.8739 23.375 21.3822 23.375 25.5C23.375 29.6177 22.9149 33.126 22.2189 35.5352C21.8669 36.7538 21.489 37.5688 21.1668 38.031C21.1002 38.1266 21.0458 38.1942 21.0042 38.241C19.883 38.1697 16.8477 37.6512 14.0477 35.9132C11.1398 34.1083 8.50002 31.0204 8.50002 25.5C8.50002 19.9796 11.1398 16.8916 14.0477 15.0867C16.8477 13.3488 19.883 12.8303 21.0042 12.759C21.0458 12.8057 21.1002 12.8734 21.1668 12.969C21.489 13.4311 21.8669 14.2462 22.2189 15.4648ZM20.9057 12.6655C20.9056 12.6662 20.9116 12.6712 20.9239 12.6785C20.9119 12.6684 20.9057 12.6648 20.9057 12.6655ZM20.9057 38.3345C20.9057 38.3352 20.9119 38.3315 20.9239 38.3215C20.9116 38.3288 20.9056 38.3338 20.9057 38.3345Z" fill="#FFFFFF"/>
</g>
</svg>
