<svg width="72" height="50" viewBox="0 0 90 50" fill="none" xmlns="http://www.w3.org/2000/svg">
<path d="M22.7961 1.45268C23.2124 0.566093 24.1037 0 25.0831 0C26.838 0 28.0584 1.74496 27.4564 3.39331L11.1546 48.0292C10.7223 49.2127 9.59661 50 8.33662 50H4.72297C2.52502 50 1.07323 47.7144 2.00745 45.7249L22.7961 1.45268Z" fill="#01E4E0"/>
<path d="M67.2039 1.45268C66.7876 0.566093 65.8963 0 64.9169 0C63.162 0 61.9416 1.74496 62.5436 3.39331L78.8454 48.0292C79.2777 49.2127 80.4034 50 81.6634 50H85.277C87.475 50 88.9268 47.7144 87.9926 45.7249L67.2039 1.45268Z" fill="#01E4E0"/>
<rect x="41.7416" width="6.52174" height="10" rx="3" fill="#32D74B"/>
<rect x="41.7407" y="15.7141" width="6.52174" height="11.4286" rx="3" fill="#32D74B"/>
<rect x="41.7407" y="34.285" width="6.52174" height="15.7143" rx="3" fill="#32D74B"/>
</svg>
