<svg width="58" height="38" viewBox="0 0 58 38" fill="none" xmlns="http://www.w3.org/2000/svg">
<g opacity="0.4">
<path fill-rule="evenodd" clip-rule="evenodd" d="M9.88294 1.43444C11.0237 2.29131 11.2539 3.91071 10.397 5.05148C7.47843 8.93706 5.75001 13.7629 5.75001 19C5.75001 24.237 7.47843 29.0629 10.397 32.9485C11.2539 34.0893 11.0237 35.7087 9.88294 36.5655C8.74217 37.4224 7.12277 37.1922 6.2659 36.0515C2.69836 31.3019 0.583344 25.3942 0.583344 19C0.583344 12.6058 2.69836 6.69808 6.2659 1.9485C7.12277 0.807726 8.74217 0.577576 9.88294 1.43444ZM48.1171 1.43444C49.2578 0.577576 50.8772 0.807726 51.7341 1.9485C55.3017 6.69808 57.4167 12.6058 57.4167 19C57.4167 25.3942 55.3017 31.3019 51.7341 36.0515C50.8772 37.1922 49.2578 37.4224 48.1171 36.5655C46.9763 35.7087 46.7462 34.0893 47.603 32.9485C50.5216 29.0629 52.25 24.237 52.25 19C52.25 13.7629 50.5216 8.93706 47.603 5.05148C46.7462 3.91071 46.9763 2.29131 48.1171 1.43444ZM29 31.9167C36.1337 31.9167 41.9167 26.1337 41.9167 19C41.9167 11.8663 36.1337 6.08333 29 6.08333C21.8663 6.08333 16.0833 11.8663 16.0833 19C16.0833 26.1337 21.8663 31.9167 29 31.9167ZM29 37.0833C38.9872 37.0833 47.0833 28.9871 47.0833 19C47.0833 9.01285 38.9872 0.916662 29 0.916662C19.0129 0.916662 10.9167 9.01285 10.9167 19C10.9167 28.9871 19.0129 37.0833 29 37.0833ZM30.602 22.3249L31.0182 9.57218H27.1458L27.5746 22.3249H30.602ZM27.5999 24.936C27.2299 25.2891 27.0448 25.7348 27.0448 26.273C27.0448 26.7944 27.2299 27.2359 27.5999 27.5975C27.9783 27.9591 28.4744 28.1399 29.0883 28.1399C29.7106 28.1399 30.2067 27.9591 30.5767 27.5975C30.9468 27.2359 31.1318 26.7944 31.1318 26.273C31.1318 25.7348 30.9468 25.2891 30.5767 24.936C30.2067 24.5744 29.7106 24.3936 29.0883 24.3936C28.4744 24.3936 27.9783 24.5744 27.5999 24.936Z" fill="white"/>
</g>
</svg>
