<svg width="72" height="72" viewBox="0 0 80 80" fill="none" xmlns="http://www.w3.org/2000/svg">
<g clip-path="url(#clip0_2_328)">
<path d="M39.9619 79.0571C61.5351 79.0571 79.3415 61.2506 79.3415 39.7155C79.3415 18.1804 61.497 0.374023 39.9239 0.374023C18.3888 0.374023 0.620422 18.1804 0.620422 39.7155C0.620422 61.2506 18.4268 79.0571 39.9619 79.0571ZM39.9619 71.2192C22.498 71.2192 8.53438 57.1795 8.53438 39.7155C8.53438 22.2516 22.498 8.24994 39.9239 8.24994C57.3879 8.24994 71.4275 22.2516 71.4656 39.7155C71.5036 57.1795 57.4259 71.2192 39.9619 71.2192ZM39.9239 22.0994C42.0546 22.0994 43.8428 20.3111 43.8428 18.1804C43.8428 16.0117 42.0546 14.2615 39.9239 14.2615C37.7552 14.2615 36.043 16.0117 36.043 18.1804C36.043 20.3111 37.7932 22.0994 39.9239 22.0994ZM24.895 28.7197C27.0637 28.7197 28.8139 26.9315 28.8139 24.8008C28.8139 22.6701 27.0637 20.8818 24.895 20.8818C22.7643 20.8818 20.976 22.6701 20.976 24.8008C20.976 26.9315 22.7643 28.7197 24.895 28.7197ZM33.9504 45.6891C37.1844 48.847 41.636 48.1241 44.2233 44.3954L58.1869 24.5725C59.7468 22.2896 57.464 20.0448 55.2191 21.5667L35.206 35.3781C31.4773 37.9273 30.7924 42.4169 33.9504 45.6891ZM18.579 43.6345C20.7478 43.6345 22.498 41.8462 22.498 39.7155C22.498 37.5468 20.7478 35.7966 18.579 35.7966C16.4483 35.7966 14.6601 37.5468 14.6601 39.7155C14.6601 41.8462 16.4483 43.6345 18.579 43.6345ZM61.3068 43.6345C63.4375 43.6345 65.2257 41.8462 65.2257 39.7155C65.2257 37.5468 63.4375 35.7966 61.3068 35.7966C59.1381 35.7966 57.3879 37.5468 57.3879 39.7155C57.3879 41.8462 59.1381 43.6345 61.3068 43.6345ZM24.9711 58.5492C27.1398 58.5492 28.89 56.761 28.89 54.6303C28.89 52.4616 27.1398 50.7114 24.9711 50.7114C22.8404 50.7114 21.0521 52.4616 21.0521 54.6303C21.0521 56.761 22.8404 58.5492 24.9711 58.5492ZM54.9148 58.5492C57.0454 58.5492 58.8337 56.761 58.8337 54.6303C58.8337 52.4616 57.0454 50.7114 54.9148 50.7114C52.746 50.7114 50.9958 52.4616 50.9958 54.6303C50.9958 56.761 52.746 58.5492 54.9148 58.5492Z" fill="white" fill-opacity="0.9"/>
</g>
<defs>
<clipPath id="clip0_2_328">
<rect width="80" height="80" fill="white"/>
</clipPath>
</defs>
</svg>
