<svg width="58" height="38" viewBox="0 0 58 38" fill="none" xmlns="http://www.w3.org/2000/svg">
<g opacity="0.4">
<path fill-rule="evenodd" clip-rule="evenodd" d="M9.88294 1.43445C11.0237 2.29131 11.2539 3.91072 10.397 5.05149C7.47843 8.93707 5.75001 13.763 5.75001 19C5.75001 24.237 7.47843 29.0629 10.397 32.9485C11.2539 34.0893 11.0237 35.7087 9.88294 36.5655C8.74217 37.4224 7.12277 37.1923 6.26591 36.0515C2.69836 31.3019 0.583344 25.3942 0.583344 19C0.583344 12.6058 2.69836 6.69808 6.26591 1.9485C7.12277 0.807733 8.74217 0.577583 9.88294 1.43445ZM48.1171 1.43445C49.2579 0.577583 50.8773 0.807733 51.7341 1.9485C55.3017 6.69808 57.4167 12.6058 57.4167 19C57.4167 25.3942 55.3017 31.3019 51.7341 36.0515C50.8773 37.1923 49.2579 37.4224 48.1171 36.5655C46.9763 35.7087 46.7462 34.0893 47.603 32.9485C50.5216 29.0629 52.25 24.237 52.25 19C52.25 13.763 50.5216 8.93707 47.603 5.05149C46.7462 3.91072 46.9763 2.29131 48.1171 1.43445ZM29 31.9167C36.1337 31.9167 41.9167 26.1337 41.9167 19C41.9167 11.8663 36.1337 6.08334 29 6.08334C21.8663 6.08334 16.0833 11.8663 16.0833 19C16.0833 26.1337 21.8663 31.9167 29 31.9167ZM29 37.0833C38.9872 37.0833 47.0833 28.9872 47.0833 19C47.0833 9.01285 38.9872 0.916669 29 0.916669C19.0129 0.916669 10.9167 9.01285 10.9167 19C10.9167 28.9872 19.0129 37.0833 29 37.0833ZM27.6564 21.5127H30.3507C31.5011 21.5127 32.4866 21.3243 33.3074 20.9476C34.1349 20.5709 34.7672 20.036 35.2045 19.3431C35.6418 18.6502 35.8605 17.8294 35.8605 16.8809C35.8605 15.9457 35.6418 15.1149 35.2045 14.3883C34.7672 13.6618 34.1349 13.0933 33.3074 12.6829C32.4866 12.2658 31.5011 12.0573 30.3507 12.0573H24.629V26.75H27.6564V21.5127ZM27.6564 19.1514V14.4287H30.3507C30.9292 14.4287 31.4002 14.5431 31.7634 14.7718C32.1267 15.0005 32.3925 15.3033 32.5606 15.68C32.7288 16.0568 32.8129 16.4638 32.8129 16.901C32.8129 17.3316 32.7288 17.7184 32.5606 18.0615C32.3925 18.4046 32.1267 18.6737 31.7634 18.8688C31.4002 19.0572 30.9292 19.1514 30.3507 19.1514H27.6564Z" fill="white"/>
</g>
</svg>
